<mxfile host="Electron" agent="Mozilla/5.0 (Macintosh; Intel Mac OS X 10_15_7) AppleWebKit/537.36 (KHTML, like Gecko) draw.io/26.0.16 Chrome/132.0.6834.196 Electron/34.2.0 Safari/537.36" version="26.0.16">
  <diagram name="第 1 页" id="roKNp2rdfv4RKgE0evIZ">
    <mxGraphModel dx="1434" dy="769" grid="1" gridSize="10" guides="1" tooltips="1" connect="1" arrows="1" fold="1" page="1" pageScale="1" pageWidth="827" pageHeight="1169" math="0" shadow="0">
      <root>
        <mxCell id="0" />
        <mxCell id="1" parent="0" />
        <mxCell id="T_aPNNUflSpGub3-r3ST-1" value="先序" style="text;html=1;align=center;verticalAlign=middle;whiteSpace=wrap;rounded=0;" vertex="1" parent="1">
          <mxGeometry x="70" y="187.5" width="60" height="30" as="geometry" />
        </mxCell>
        <mxCell id="T_aPNNUflSpGub3-r3ST-2" value="中序" style="text;html=1;align=center;verticalAlign=middle;whiteSpace=wrap;rounded=0;" vertex="1" parent="1">
          <mxGeometry x="70" y="297.5" width="60" height="30" as="geometry" />
        </mxCell>
        <mxCell id="T_aPNNUflSpGub3-r3ST-3" value="A" style="ellipse;whiteSpace=wrap;html=1;aspect=fixed;fillColor=#dae8fc;strokeColor=#6c8ebf;" vertex="1" parent="1">
          <mxGeometry x="150" y="180" width="45" height="45" as="geometry" />
        </mxCell>
        <mxCell id="T_aPNNUflSpGub3-r3ST-4" value="B" style="ellipse;whiteSpace=wrap;html=1;aspect=fixed;fillColor=#fff2cc;strokeColor=#d6b656;" vertex="1" parent="1">
          <mxGeometry x="220" y="180" width="45" height="45" as="geometry" />
        </mxCell>
        <mxCell id="T_aPNNUflSpGub3-r3ST-5" value="D" style="ellipse;whiteSpace=wrap;html=1;aspect=fixed;fillColor=#fff2cc;strokeColor=#d6b656;" vertex="1" parent="1">
          <mxGeometry x="290" y="180" width="45" height="45" as="geometry" />
        </mxCell>
        <mxCell id="T_aPNNUflSpGub3-r3ST-6" value="F" style="ellipse;whiteSpace=wrap;html=1;aspect=fixed;fillColor=#fff2cc;strokeColor=#d6b656;" vertex="1" parent="1">
          <mxGeometry x="360" y="180" width="45" height="45" as="geometry" />
        </mxCell>
        <mxCell id="T_aPNNUflSpGub3-r3ST-7" value="C" style="ellipse;whiteSpace=wrap;html=1;aspect=fixed;fillColor=#e1d5e7;strokeColor=#9673a6;" vertex="1" parent="1">
          <mxGeometry x="430" y="180" width="45" height="45" as="geometry" />
        </mxCell>
        <mxCell id="T_aPNNUflSpGub3-r3ST-8" value="E" style="ellipse;whiteSpace=wrap;html=1;aspect=fixed;fillColor=#e1d5e7;strokeColor=#9673a6;" vertex="1" parent="1">
          <mxGeometry x="500" y="180" width="45" height="45" as="geometry" />
        </mxCell>
        <mxCell id="T_aPNNUflSpGub3-r3ST-9" value="G" style="ellipse;whiteSpace=wrap;html=1;aspect=fixed;fillColor=#e1d5e7;strokeColor=#9673a6;" vertex="1" parent="1">
          <mxGeometry x="570" y="180" width="45" height="45" as="geometry" />
        </mxCell>
        <mxCell id="T_aPNNUflSpGub3-r3ST-10" value="H" style="ellipse;whiteSpace=wrap;html=1;aspect=fixed;fillColor=#e1d5e7;strokeColor=#9673a6;" vertex="1" parent="1">
          <mxGeometry x="640" y="180" width="45" height="45" as="geometry" />
        </mxCell>
        <mxCell id="T_aPNNUflSpGub3-r3ST-11" value="B" style="ellipse;whiteSpace=wrap;html=1;aspect=fixed;fillColor=#fff2cc;strokeColor=#d6b656;" vertex="1" parent="1">
          <mxGeometry x="150" y="290" width="45" height="45" as="geometry" />
        </mxCell>
        <mxCell id="T_aPNNUflSpGub3-r3ST-12" value="F" style="ellipse;whiteSpace=wrap;html=1;aspect=fixed;fillColor=#fff2cc;strokeColor=#d6b656;" vertex="1" parent="1">
          <mxGeometry x="220" y="290" width="45" height="45" as="geometry" />
        </mxCell>
        <mxCell id="T_aPNNUflSpGub3-r3ST-13" value="D" style="ellipse;whiteSpace=wrap;html=1;aspect=fixed;fillColor=#fff2cc;strokeColor=#d6b656;" vertex="1" parent="1">
          <mxGeometry x="290" y="290" width="45" height="45" as="geometry" />
        </mxCell>
        <mxCell id="T_aPNNUflSpGub3-r3ST-14" value="A" style="ellipse;whiteSpace=wrap;html=1;aspect=fixed;fillColor=#dae8fc;strokeColor=#6c8ebf;" vertex="1" parent="1">
          <mxGeometry x="360" y="290" width="45" height="45" as="geometry" />
        </mxCell>
        <mxCell id="T_aPNNUflSpGub3-r3ST-15" value="G" style="ellipse;whiteSpace=wrap;html=1;aspect=fixed;fillColor=#e1d5e7;strokeColor=#9673a6;" vertex="1" parent="1">
          <mxGeometry x="430" y="290" width="45" height="45" as="geometry" />
        </mxCell>
        <mxCell id="T_aPNNUflSpGub3-r3ST-16" value="E" style="ellipse;whiteSpace=wrap;html=1;aspect=fixed;fillColor=#e1d5e7;strokeColor=#9673a6;" vertex="1" parent="1">
          <mxGeometry x="500" y="290" width="45" height="45" as="geometry" />
        </mxCell>
        <mxCell id="T_aPNNUflSpGub3-r3ST-17" value="H" style="ellipse;whiteSpace=wrap;html=1;aspect=fixed;fillColor=#e1d5e7;strokeColor=#9673a6;" vertex="1" parent="1">
          <mxGeometry x="570" y="290" width="45" height="45" as="geometry" />
        </mxCell>
        <mxCell id="T_aPNNUflSpGub3-r3ST-18" value="C" style="ellipse;whiteSpace=wrap;html=1;aspect=fixed;fillColor=#e1d5e7;strokeColor=#9673a6;" vertex="1" parent="1">
          <mxGeometry x="640" y="290" width="45" height="45" as="geometry" />
        </mxCell>
        <mxCell id="T_aPNNUflSpGub3-r3ST-21" style="rounded=0;orthogonalLoop=1;jettySize=auto;html=1;exitX=0;exitY=1;exitDx=0;exitDy=0;entryX=1;entryY=0;entryDx=0;entryDy=0;" edge="1" parent="1" source="T_aPNNUflSpGub3-r3ST-19" target="T_aPNNUflSpGub3-r3ST-20">
          <mxGeometry relative="1" as="geometry" />
        </mxCell>
        <mxCell id="T_aPNNUflSpGub3-r3ST-23" style="rounded=0;orthogonalLoop=1;jettySize=auto;html=1;exitX=1;exitY=1;exitDx=0;exitDy=0;entryX=0;entryY=0;entryDx=0;entryDy=0;" edge="1" parent="1" source="T_aPNNUflSpGub3-r3ST-19" target="T_aPNNUflSpGub3-r3ST-22">
          <mxGeometry relative="1" as="geometry" />
        </mxCell>
        <mxCell id="T_aPNNUflSpGub3-r3ST-19" value="A" style="ellipse;whiteSpace=wrap;html=1;aspect=fixed;" vertex="1" parent="1">
          <mxGeometry x="350" y="440" width="45" height="45" as="geometry" />
        </mxCell>
        <mxCell id="T_aPNNUflSpGub3-r3ST-25" style="rounded=0;orthogonalLoop=1;jettySize=auto;html=1;exitX=1;exitY=1;exitDx=0;exitDy=0;entryX=0;entryY=0;entryDx=0;entryDy=0;" edge="1" parent="1" source="T_aPNNUflSpGub3-r3ST-20" target="T_aPNNUflSpGub3-r3ST-24">
          <mxGeometry relative="1" as="geometry" />
        </mxCell>
        <mxCell id="T_aPNNUflSpGub3-r3ST-20" value="B" style="ellipse;whiteSpace=wrap;html=1;aspect=fixed;" vertex="1" parent="1">
          <mxGeometry x="210" y="540" width="45" height="45" as="geometry" />
        </mxCell>
        <mxCell id="T_aPNNUflSpGub3-r3ST-29" style="rounded=0;orthogonalLoop=1;jettySize=auto;html=1;exitX=0;exitY=1;exitDx=0;exitDy=0;entryX=1;entryY=0;entryDx=0;entryDy=0;" edge="1" parent="1" source="T_aPNNUflSpGub3-r3ST-22" target="T_aPNNUflSpGub3-r3ST-28">
          <mxGeometry relative="1" as="geometry" />
        </mxCell>
        <mxCell id="T_aPNNUflSpGub3-r3ST-22" value="C" style="ellipse;whiteSpace=wrap;html=1;aspect=fixed;" vertex="1" parent="1">
          <mxGeometry x="480" y="540" width="45" height="45" as="geometry" />
        </mxCell>
        <mxCell id="T_aPNNUflSpGub3-r3ST-27" style="rounded=0;orthogonalLoop=1;jettySize=auto;html=1;exitX=0;exitY=1;exitDx=0;exitDy=0;entryX=1;entryY=0;entryDx=0;entryDy=0;" edge="1" parent="1" source="T_aPNNUflSpGub3-r3ST-24" target="T_aPNNUflSpGub3-r3ST-26">
          <mxGeometry relative="1" as="geometry" />
        </mxCell>
        <mxCell id="T_aPNNUflSpGub3-r3ST-24" value="D" style="ellipse;whiteSpace=wrap;html=1;aspect=fixed;" vertex="1" parent="1">
          <mxGeometry x="280" y="630" width="45" height="45" as="geometry" />
        </mxCell>
        <mxCell id="T_aPNNUflSpGub3-r3ST-26" value="F" style="ellipse;whiteSpace=wrap;html=1;aspect=fixed;" vertex="1" parent="1">
          <mxGeometry x="210" y="720" width="45" height="45" as="geometry" />
        </mxCell>
        <mxCell id="T_aPNNUflSpGub3-r3ST-32" style="rounded=0;orthogonalLoop=1;jettySize=auto;html=1;exitX=0;exitY=1;exitDx=0;exitDy=0;entryX=1;entryY=0;entryDx=0;entryDy=0;" edge="1" parent="1" source="T_aPNNUflSpGub3-r3ST-28" target="T_aPNNUflSpGub3-r3ST-30">
          <mxGeometry relative="1" as="geometry" />
        </mxCell>
        <mxCell id="T_aPNNUflSpGub3-r3ST-33" style="rounded=0;orthogonalLoop=1;jettySize=auto;html=1;exitX=1;exitY=1;exitDx=0;exitDy=0;entryX=0;entryY=0;entryDx=0;entryDy=0;" edge="1" parent="1" source="T_aPNNUflSpGub3-r3ST-28" target="T_aPNNUflSpGub3-r3ST-31">
          <mxGeometry relative="1" as="geometry" />
        </mxCell>
        <mxCell id="T_aPNNUflSpGub3-r3ST-28" value="E" style="ellipse;whiteSpace=wrap;html=1;aspect=fixed;" vertex="1" parent="1">
          <mxGeometry x="420" y="630" width="45" height="45" as="geometry" />
        </mxCell>
        <mxCell id="T_aPNNUflSpGub3-r3ST-30" value="G" style="ellipse;whiteSpace=wrap;html=1;aspect=fixed;" vertex="1" parent="1">
          <mxGeometry x="350" y="720" width="45" height="45" as="geometry" />
        </mxCell>
        <mxCell id="T_aPNNUflSpGub3-r3ST-31" value="H" style="ellipse;whiteSpace=wrap;html=1;aspect=fixed;" vertex="1" parent="1">
          <mxGeometry x="480" y="720" width="45" height="45" as="geometry" />
        </mxCell>
        <mxCell id="T_aPNNUflSpGub3-r3ST-35" style="rounded=0;orthogonalLoop=1;jettySize=auto;html=1;exitX=0;exitY=1;exitDx=0;exitDy=0;entryX=1;entryY=0;entryDx=0;entryDy=0;" edge="1" parent="1" source="T_aPNNUflSpGub3-r3ST-37" target="T_aPNNUflSpGub3-r3ST-39">
          <mxGeometry relative="1" as="geometry" />
        </mxCell>
        <mxCell id="T_aPNNUflSpGub3-r3ST-36" style="rounded=0;orthogonalLoop=1;jettySize=auto;html=1;exitX=1;exitY=1;exitDx=0;exitDy=0;entryX=0;entryY=0;entryDx=0;entryDy=0;dashed=1;" edge="1" parent="1" source="T_aPNNUflSpGub3-r3ST-37" target="T_aPNNUflSpGub3-r3ST-41">
          <mxGeometry relative="1" as="geometry" />
        </mxCell>
        <mxCell id="T_aPNNUflSpGub3-r3ST-53" style="rounded=0;orthogonalLoop=1;jettySize=auto;html=1;exitX=0.5;exitY=1;exitDx=0;exitDy=0;fillColor=#ffe6cc;strokeColor=#d79b00;" edge="1" parent="1" source="T_aPNNUflSpGub3-r3ST-37" target="T_aPNNUflSpGub3-r3ST-43">
          <mxGeometry relative="1" as="geometry" />
        </mxCell>
        <mxCell id="T_aPNNUflSpGub3-r3ST-37" value="A" style="ellipse;whiteSpace=wrap;html=1;aspect=fixed;" vertex="1" parent="1">
          <mxGeometry x="910" y="440" width="45" height="45" as="geometry" />
        </mxCell>
        <mxCell id="T_aPNNUflSpGub3-r3ST-38" style="rounded=0;orthogonalLoop=1;jettySize=auto;html=1;exitX=1;exitY=1;exitDx=0;exitDy=0;entryX=0;entryY=0;entryDx=0;entryDy=0;dashed=1;" edge="1" parent="1" source="T_aPNNUflSpGub3-r3ST-39" target="T_aPNNUflSpGub3-r3ST-43">
          <mxGeometry relative="1" as="geometry" />
        </mxCell>
        <mxCell id="T_aPNNUflSpGub3-r3ST-39" value="B" style="ellipse;whiteSpace=wrap;html=1;aspect=fixed;" vertex="1" parent="1">
          <mxGeometry x="770" y="540" width="45" height="45" as="geometry" />
        </mxCell>
        <mxCell id="T_aPNNUflSpGub3-r3ST-40" style="rounded=0;orthogonalLoop=1;jettySize=auto;html=1;exitX=0;exitY=1;exitDx=0;exitDy=0;entryX=1;entryY=0;entryDx=0;entryDy=0;" edge="1" parent="1" source="T_aPNNUflSpGub3-r3ST-41" target="T_aPNNUflSpGub3-r3ST-47">
          <mxGeometry relative="1" as="geometry" />
        </mxCell>
        <mxCell id="T_aPNNUflSpGub3-r3ST-52" style="rounded=0;orthogonalLoop=1;jettySize=auto;html=1;exitX=0.5;exitY=1;exitDx=0;exitDy=0;fillColor=#ffe6cc;strokeColor=#d79b00;" edge="1" parent="1" source="T_aPNNUflSpGub3-r3ST-41" target="T_aPNNUflSpGub3-r3ST-49">
          <mxGeometry relative="1" as="geometry" />
        </mxCell>
        <mxCell id="T_aPNNUflSpGub3-r3ST-41" value="C" style="ellipse;whiteSpace=wrap;html=1;aspect=fixed;" vertex="1" parent="1">
          <mxGeometry x="1040" y="540" width="45" height="45" as="geometry" />
        </mxCell>
        <mxCell id="T_aPNNUflSpGub3-r3ST-42" style="rounded=0;orthogonalLoop=1;jettySize=auto;html=1;exitX=0;exitY=1;exitDx=0;exitDy=0;entryX=1;entryY=0;entryDx=0;entryDy=0;" edge="1" parent="1" source="T_aPNNUflSpGub3-r3ST-43" target="T_aPNNUflSpGub3-r3ST-44">
          <mxGeometry relative="1" as="geometry" />
        </mxCell>
        <mxCell id="T_aPNNUflSpGub3-r3ST-43" value="D" style="ellipse;whiteSpace=wrap;html=1;aspect=fixed;" vertex="1" parent="1">
          <mxGeometry x="840" y="630" width="45" height="45" as="geometry" />
        </mxCell>
        <mxCell id="T_aPNNUflSpGub3-r3ST-44" value="F" style="ellipse;whiteSpace=wrap;html=1;aspect=fixed;" vertex="1" parent="1">
          <mxGeometry x="770" y="720" width="45" height="45" as="geometry" />
        </mxCell>
        <mxCell id="T_aPNNUflSpGub3-r3ST-45" style="rounded=0;orthogonalLoop=1;jettySize=auto;html=1;exitX=0;exitY=1;exitDx=0;exitDy=0;entryX=1;entryY=0;entryDx=0;entryDy=0;" edge="1" parent="1" source="T_aPNNUflSpGub3-r3ST-47" target="T_aPNNUflSpGub3-r3ST-48">
          <mxGeometry relative="1" as="geometry" />
        </mxCell>
        <mxCell id="T_aPNNUflSpGub3-r3ST-46" style="rounded=0;orthogonalLoop=1;jettySize=auto;html=1;exitX=1;exitY=1;exitDx=0;exitDy=0;entryX=0;entryY=0;entryDx=0;entryDy=0;dashed=1;" edge="1" parent="1" source="T_aPNNUflSpGub3-r3ST-47" target="T_aPNNUflSpGub3-r3ST-49">
          <mxGeometry relative="1" as="geometry" />
        </mxCell>
        <mxCell id="T_aPNNUflSpGub3-r3ST-47" value="E" style="ellipse;whiteSpace=wrap;html=1;aspect=fixed;" vertex="1" parent="1">
          <mxGeometry x="980" y="630" width="45" height="45" as="geometry" />
        </mxCell>
        <mxCell id="T_aPNNUflSpGub3-r3ST-48" value="G" style="ellipse;whiteSpace=wrap;html=1;aspect=fixed;" vertex="1" parent="1">
          <mxGeometry x="910" y="720" width="45" height="45" as="geometry" />
        </mxCell>
        <mxCell id="T_aPNNUflSpGub3-r3ST-49" value="H" style="ellipse;whiteSpace=wrap;html=1;aspect=fixed;" vertex="1" parent="1">
          <mxGeometry x="1040" y="720" width="45" height="45" as="geometry" />
        </mxCell>
        <mxCell id="T_aPNNUflSpGub3-r3ST-54" value="二叉树转森林" style="text;html=1;align=center;verticalAlign=middle;whiteSpace=wrap;rounded=0;" vertex="1" parent="1">
          <mxGeometry x="580" y="547.5" width="130" height="30" as="geometry" />
        </mxCell>
        <mxCell id="T_aPNNUflSpGub3-r3ST-55" style="rounded=0;orthogonalLoop=1;jettySize=auto;html=1;exitX=0;exitY=1;exitDx=0;exitDy=0;entryX=1;entryY=0;entryDx=0;entryDy=0;" edge="1" parent="1" source="T_aPNNUflSpGub3-r3ST-58" target="T_aPNNUflSpGub3-r3ST-60">
          <mxGeometry relative="1" as="geometry" />
        </mxCell>
        <mxCell id="T_aPNNUflSpGub3-r3ST-57" style="rounded=0;orthogonalLoop=1;jettySize=auto;html=1;exitX=0.5;exitY=1;exitDx=0;exitDy=0;fillColor=#ffe6cc;strokeColor=#000000;" edge="1" parent="1" source="T_aPNNUflSpGub3-r3ST-58" target="T_aPNNUflSpGub3-r3ST-65">
          <mxGeometry relative="1" as="geometry" />
        </mxCell>
        <mxCell id="T_aPNNUflSpGub3-r3ST-58" value="A" style="ellipse;whiteSpace=wrap;html=1;aspect=fixed;" vertex="1" parent="1">
          <mxGeometry x="1340" y="460" width="45" height="45" as="geometry" />
        </mxCell>
        <mxCell id="T_aPNNUflSpGub3-r3ST-60" value="B" style="ellipse;whiteSpace=wrap;html=1;aspect=fixed;" vertex="1" parent="1">
          <mxGeometry x="1270" y="550" width="45" height="45" as="geometry" />
        </mxCell>
        <mxCell id="T_aPNNUflSpGub3-r3ST-61" style="rounded=0;orthogonalLoop=1;jettySize=auto;html=1;exitX=0;exitY=1;exitDx=0;exitDy=0;entryX=1;entryY=0;entryDx=0;entryDy=0;" edge="1" parent="1" source="T_aPNNUflSpGub3-r3ST-63" target="T_aPNNUflSpGub3-r3ST-69">
          <mxGeometry relative="1" as="geometry" />
        </mxCell>
        <mxCell id="T_aPNNUflSpGub3-r3ST-62" style="rounded=0;orthogonalLoop=1;jettySize=auto;html=1;exitX=0.5;exitY=1;exitDx=0;exitDy=0;fillColor=#ffe6cc;strokeColor=#050505;" edge="1" parent="1" source="T_aPNNUflSpGub3-r3ST-63" target="T_aPNNUflSpGub3-r3ST-71">
          <mxGeometry relative="1" as="geometry" />
        </mxCell>
        <mxCell id="T_aPNNUflSpGub3-r3ST-63" value="C" style="ellipse;whiteSpace=wrap;html=1;aspect=fixed;" vertex="1" parent="1">
          <mxGeometry x="1560" y="460" width="45" height="45" as="geometry" />
        </mxCell>
        <mxCell id="T_aPNNUflSpGub3-r3ST-64" style="rounded=0;orthogonalLoop=1;jettySize=auto;html=1;exitX=0;exitY=1;exitDx=0;exitDy=0;entryX=1;entryY=0;entryDx=0;entryDy=0;" edge="1" parent="1" source="T_aPNNUflSpGub3-r3ST-65" target="T_aPNNUflSpGub3-r3ST-66">
          <mxGeometry relative="1" as="geometry" />
        </mxCell>
        <mxCell id="T_aPNNUflSpGub3-r3ST-65" value="D" style="ellipse;whiteSpace=wrap;html=1;aspect=fixed;" vertex="1" parent="1">
          <mxGeometry x="1360" y="630" width="45" height="45" as="geometry" />
        </mxCell>
        <mxCell id="T_aPNNUflSpGub3-r3ST-66" value="F" style="ellipse;whiteSpace=wrap;html=1;aspect=fixed;" vertex="1" parent="1">
          <mxGeometry x="1330" y="730" width="45" height="45" as="geometry" />
        </mxCell>
        <mxCell id="T_aPNNUflSpGub3-r3ST-67" style="rounded=0;orthogonalLoop=1;jettySize=auto;html=1;exitX=0;exitY=1;exitDx=0;exitDy=0;entryX=1;entryY=0;entryDx=0;entryDy=0;" edge="1" parent="1" source="T_aPNNUflSpGub3-r3ST-69" target="T_aPNNUflSpGub3-r3ST-70">
          <mxGeometry relative="1" as="geometry" />
        </mxCell>
        <mxCell id="T_aPNNUflSpGub3-r3ST-69" value="E" style="ellipse;whiteSpace=wrap;html=1;aspect=fixed;" vertex="1" parent="1">
          <mxGeometry x="1490" y="630" width="45" height="45" as="geometry" />
        </mxCell>
        <mxCell id="T_aPNNUflSpGub3-r3ST-70" value="G" style="ellipse;whiteSpace=wrap;html=1;aspect=fixed;" vertex="1" parent="1">
          <mxGeometry x="1445" y="730" width="45" height="45" as="geometry" />
        </mxCell>
        <mxCell id="T_aPNNUflSpGub3-r3ST-71" value="H" style="ellipse;whiteSpace=wrap;html=1;aspect=fixed;" vertex="1" parent="1">
          <mxGeometry x="1620" y="660" width="45" height="45" as="geometry" />
        </mxCell>
      </root>
    </mxGraphModel>
  </diagram>
</mxfile>
